<svg id="layer_1" data-name="layer 1" xmlns="http://www.w3.org/2000/svg" viewBox="0 0 1400 1400"><defs><style>.cls-1{fill:#fff;}.cls-2{fill:#ebebeb;}.cls-3{fill:#ffd27f;}.cls-4{fill:#455a64;}.cls-5{fill:#8b979c;}.cls-6{fill:#edb67b;}.cls-7{fill:#b37400;}.cls-8{fill:#d58a56;}.cls-9{fill:orange;}.cls-10{fill:#28265d;}.cls-11{fill:#324148;}.cls-12{fill:#c7c7c7;}.cls-13{fill:#23100a;}.cls-14{fill:#a8512a;}.cls-15{fill:#37474f;}</style></defs><rect class="cls-1" width="1400" height="1400"/><path class="cls-2" d="M191.84,1142.4c-173.26-231,86.41-237.75,41.53-356.18S-13.47,324.78,169.26,228.61,1442-113.47,1252.81,463.48c-48.09,146.61-173.11,213.61-109,316.36s101.84,253.72,39.7,362.56Z"/><path class="cls-3" d="M764.73,98.49c-15.4,5.66-36.66,12.53-58,23.86L598.86,97.71l-11.68,8.57,67.43,47.13c-14.28,9.36-27.24,18.56-37.41,26.42L588.74,167l-14,4.67,10.12,21H558.37l3.89,11.68,20.25,4.67,62.3-23.36-.22,0c13.25-4.82,28.58-10.4,44.69-16.28L770,187.51l8-4.35-39.53-31.75,97.86-35.79C853.5,109.39,845.2,68.9,764.73,98.49Z"/><polygon class="cls-4" points="558.75 327.53 558.75 301.49 534.69 301.49 534.69 276.8 515.12 276.8 515.12 109.9 500.58 109.9 500.58 276.8 483.48 276.8 483.48 301.49 460.65 301.49 460.65 327.53 431.03 327.53 431.03 1208.26 590.22 1208.26 590.22 327.53 558.75 327.53"/><path class="cls-2" d="M497.79,431.1h25.93V403.05H497.79Zm0-43.14h25.93v-28H497.79Zm-41.23,0h25.92v-28H456.56Zm41.23,86.27h25.93v-28H497.79Zm0,43.14h25.93v-28H497.79Zm-41.23,0h25.92v-28H456.56Zm81.3-43.14h25.92v-28H537.86Zm0-43.13h25.92V403.05H537.86Zm-81.3,43.13h25.92v-28H456.56Zm81.3-114.31v28h25.92v-28Zm0,157.45h25.92v-28H537.86Zm-81.3-86.27h25.92V403.05H456.56Zm0,130.57h25.92v-28H456.56Zm0,43.14h25.92v-28H456.56Zm0,86.27h25.92V663H456.56Zm0-43.13h25.92V619.9H456.56Zm81.3,43.13h25.92V663H537.86Zm0-43.13h25.92V619.9H537.86Zm0-43.14h25.92v-28H537.86Zm0-43.14h25.92v-28H537.86Zm-40.07,0h25.93v-28H497.79Zm0,129.41h25.93V663H497.79Zm0-43.13h25.93V619.9H497.79Zm0-43.14h25.93v-28H497.79Z"/><polygon class="cls-5" points="761.32 1208.26 590.22 1208.26 590.22 356.81 676.48 272.4 761.32 356.81 761.32 1208.26"/><path class="cls-2" d="M660,465.22H691.5V431.1H660Zm0-52.49H691.5V378.61H660Zm-50.17,0h31.54V378.61H609.78Zm50.17,105H691.5V483.59H660Zm0,52.49H691.5V536.08H660Zm-50.17,0h31.54V536.08H609.78Zm98.92-52.49h31.54V483.59H708.7Zm0-52.49h31.54V431.1H708.7Zm-98.92,52.49h31.54V483.59H609.78Zm98.92-139.1v34.12h31.54V378.61Zm0,191.59h31.54V536.08H708.7Zm-98.92-105h31.54V431.1H609.78Zm0,158.89h31.54V590H609.78Zm0,52.49h31.54V642.48H609.78Zm0,105h31.54V747.46H609.78Zm0-52.49h31.54V695H609.78Zm98.92,52.49h31.54V747.46H708.7Zm0-52.49h31.54V695H708.7Zm0-52.49h31.54V642.48H708.7Zm0-52.49h31.54V590H708.7Zm-48.75,0H691.5V590H660Zm0,157.47H691.5V747.46H660Zm0-52.49H691.5V695H660Zm0-52.49H691.5V642.48H660Z"/><polygon class="cls-4" points="882.26 356.87 882.26 332.22 859.48 332.22 832.67 308.83 810.98 332.22 789.37 332.22 789.37 356.87 761.32 356.87 761.32 1208.26 912.06 1208.26 912.06 356.87 882.26 356.87"/><path class="cls-2" d="M777.74,805.22h15.67V374.08H777.74Zm34.33,0h15.67V374.08H812.07Zm34.33,0h15.67V374.08H846.4Zm34.32-431.14V805.22h15.67V374.08Z"/><path class="cls-2" d="M191.84,1142.4c70.44,109.39,265.82,188.06,495.84,188.06s425.39-78.67,495.83-188.06Z"/><path class="cls-6" d="M704,317.72c-14.14.56-36.21,8.48-50.35,16.4s-23.76,6.79-31.12,22.63l48.09,99.58s4.53,17.54,21.5,14.14c4-27.15,14.71-41.86,14.71-41.86,14.32,9.58,23.85,4.35,28.19-1.46,4.18-4.4,6.18-18.49,10.36-19.54h0c4.35-.66,8.41-2.87,9.46-5.92h0v0c0-.13.07-.24.1-.37l-.09.34a4.92,4.92,0,0,0-.13-3.39,83.26,83.26,0,0,1-4.34-17.16c.38-11.69,6.79-19.61,2.27-29.42l4.11-2C750.61,340.9,716.93,317.2,704,317.72Z"/><path class="cls-4" d="M1054.19,1165.79c-58.84-11.31-715.21-9.21-749.07-6.79-158.41,11.32,72.42,45.26,362.09,49.79S1112.65,1177,1054.19,1165.79Z"/><circle class="cls-7" cx="359.43" cy="1139.77" r="16.97" transform="translate(-700.66 587.99) rotate(-45)"/><path class="cls-8" d="M499.82,1115.07c-1.78,11.65,6.12,13,13.09,7.07s58.73-77.81,75.36-98.44l-49.09-17S501.59,1103.42,499.82,1115.07Z"/><path class="cls-9" d="M515.8,1141.32a56.34,56.34,0,0,0-5-18.12,10,10,0,0,1-10.88-6s-9.21,3.91-12.65,5.33-28.91,16.15-29.63,18.24,1.38,7.75,13.69,17.18,53.94,28.54,60.21,30.7,15.76-1.26,14.69-3.59S515.8,1141.32,515.8,1141.32Z"/><path class="cls-10" d="M532.93,865.56c-3.77,5.28-6,8.3-12.07,15.84l16.6,17.35C554.05,870.09,536.71,860.28,532.93,865.56Z"/><path class="cls-6" d="M842.22,1014.92l-40,33.19s63.36,82.23,72.41,89.77,14.34,1.51,12.83-7.54S851.27,1039.82,842.22,1014.92Z"/><path class="cls-11" d="M606.11,818C604.54,955.33,505,1005.12,505,1005.12s10.07,53.55,83.25,60.34C616.18,956.08,691.09,838,691.09,838l-73.67-75.81S606.86,787.86,606.11,818Z"/><path class="cls-11" d="M816.3,927.44c-21.88-57.33-42-132-54.8-171.26s-22.25-46-22.44-78.07C707.19,646.05,627.6,673,627.6,673S605,706.4,612.89,750.15c8.07,44.56,42.25,70.15,47.53,80,3,5.49,70.72,50.93,97.69,111.48,23,51.72,26.64,104.07,6.87,132.95,111.64,9.81,93.35-57.54,93.35-57.54S838.17,984.77,816.3,927.44Z"/><path class="cls-12" d="M458.82,1177.72s8.19,5.23,23.9-23.29S675,804.35,675,804.35l-8.53-4.69Z"/><path class="cls-8" d="M759.24,655.1c-14-11.69-50.54-18.11-78.08-32.82S622,598.15,612.52,591.73a105.35,105.35,0,0,0,15.84-29l-46.58,9S571,591.54,571,604s15.09,19.8,42.62,27.72,66.76,6.79,92.41,18.48,29.79,23.39,37.34,27.16,15.46,4.91,10.93,2.64-3.39-6-6.78-8.3,9.43,2.64,12.07,4.91,2.64,6,3.77,7.54,2.26-4.9,1.51-8.67c1.13,2.64,4.52.75,2.64-4.53S773.19,666.79,759.24,655.1Z"/><path class="cls-9" d="M681.92,459.72S627,448.41,628.74,557.6c0,0,6.22,65.63-1.14,115.41,62.24,31.12,111.46,5.1,111.46,5.1s-2.83-49.79,0-65.63,9.62-22.07,14.71-41.87-14.71-43-31.68-66.19S681.92,459.72,681.92,459.72Z"/><path class="cls-6" d="M695.12,603.05c1.13-31.68,3.77-93.54,2.64-116.92-.39-7.92-20.74-29.8-45.26,10.93C650,511,653.63,565,658.16,608s25.45,128.43,19.23,169.16c-.77,5-7.16,4-13.58,9.25s-7.16,16.21-8.29,22.25.37,7.92,7.16-.76c4.47-5.7,11.56-2.13,7.17,6-5.47,10.18-9.9,19-12.54,22.35s6.88,1.41,9.9-1.61c3.77,1.14,9.43-3.77,9.43-3.77s6.79-.75,11.69-8.3,3.39-12.44,7.54-35.83,4.72-73,3-106.36C697.36,650.23,694,634.73,695.12,603.05Z"/><path class="cls-13" d="M697.76,285.47c-47.28-10.76-74.68,35.64-91.09,94.48s-71.42,35.76-110.32,95.61c-73.55,113.16,89.39,190.1,162.37,52.05,11.88,15.28,31.68,3.4,28.85,2.27s-10.74-.57-17-21.5,44.13-72.42,8.49-111.46c-26-24.89,2.26-49.78,14.71-25.46,0,0-.57,8.49-1.13,16.41s11.31,0,15.27-28.29c0,0,10.19-.56,18.67-13l3.4,7.36s19.23,9.05,36.77-4.53C756,335.26,767.35,301.31,697.76,285.47Z"/><path class="cls-8" d="M681.54,368.45c-6.87-1.72-8.71,7.3-7.54,5.84,4-4.9,11.31.95,12.63,2.83C688.92,380.4,688.33,370.14,681.54,368.45Z"/><path class="cls-14" d="M680.79,384.48c1.13,5.65,7.73,9.61,6.22-.57C686.65,381.48,679.65,378.82,680.79,384.48Z"/><path class="cls-9" d="M958.57,1134.39c-2.54-.28-53.18,3.4-53.18,3.4a56.61,56.61,0,0,0-18.1-5.1,10,10,0,0,1-10.75,6.23s-1.42,9.9-2,13.58-1.13,33.09.28,34.79,7.36,2.83,21.78-2.83,52.34-31.4,57.43-35.64S961.12,1134.67,958.57,1134.39Z"/><path class="cls-9" d="M537.46,889c-30.93-30.18-66.38-37-80-23.39S435.84,898.2,430.34,904c-61.85,65.63-108.73,194-104.85,201.41,30.93,58.84,125.16,71.84,127.48,69.4,61.11-64.12,107.87-185.57,115.42-211.22S568.39,919.12,537.46,889Z"/><path class="cls-4" d="M407.71,1024s-65.19,70.11-78,88.66c34.47,52.71,127.36,67.82,129.09,65.09C471.32,1158,497.9,1117,515.76,1084,434.22,1079.06,407.71,1024,407.71,1024Z"/><path class="cls-3" d="M447.12,878.16C439.51,889,434.27,899.87,430.34,904c-61.85,65.63-108.73,194-104.85,201.41a98.73,98.73,0,0,0,23,28.42c8.52-13.32,63.93-100.37,109.76-182.3C505.41,867.24,467.3,860.09,447.12,878.16Z"/><path class="cls-15" d="M325.49,1105.44a98.73,98.73,0,0,0,23,28.42c5.74-9,32.77-51.42,63.8-103.2a238.79,238.79,0,0,1-34.19-52.78C344.26,1037.77,322.82,1100.36,325.49,1105.44Z"/><path class="cls-7" d="M385.46,1152.21a17,17,0,1,0,17,17A17,17,0,0,0,385.46,1152.21Z"/><path class="cls-4" d="M531.47,881.08c-2,14.2-14.79,79.87-91.12,193l5.63,3.8c87.78-130.15,92.56-198.65,92.6-199.31l-6.77-.45S531.75,879.05,531.47,881.08Z"/></svg>